<?xml version="1.0" encoding="UTF-8" standalone="no"?>
<!DOCTYPE svg PUBLIC "-//W3C//DTD SVG 1.1//EN" "http://www.w3.org/Graphics/SVG/1.1/DTD/svg11.dtd">
<svg width="100%" height="100%" viewBox="0 0 266 28" version="1.1" xmlns="http://www.w3.org/2000/svg" xmlns:xlink="http://www.w3.org/1999/xlink" xml:space="preserve" xmlns:serif="http://www.serif.com/" style="fill-rule:evenodd;clip-rule:evenodd;stroke-linejoin:round;stroke-miterlimit:2;">
    <g transform="matrix(1,0,0,1,-2199.43,-1248.25)">
        <g transform="matrix(0.165783,0,0,0.165783,1961.94,1127.19)">
            <g transform="matrix(197.879,0,0,197.879,1434.33,891.587)">
                <path d="M0.471,-0.562C0.458,-0.583 0.44,-0.599 0.419,-0.609C0.397,-0.619 0.373,-0.624 0.348,-0.624C0.335,-0.624 0.321,-0.622 0.306,-0.618C0.291,-0.614 0.277,-0.608 0.264,-0.6C0.251,-0.591 0.24,-0.58 0.231,-0.566C0.222,-0.552 0.218,-0.535 0.218,-0.515C0.218,-0.49 0.227,-0.47 0.245,-0.456C0.262,-0.442 0.286,-0.429 0.316,-0.418C0.378,-0.395 0.426,-0.368 0.459,-0.337C0.492,-0.305 0.509,-0.262 0.509,-0.208C0.509,-0.167 0.501,-0.133 0.485,-0.104C0.469,-0.075 0.448,-0.052 0.422,-0.034C0.396,-0.016 0.367,-0.003 0.334,0.006C0.301,0.014 0.268,0.018 0.235,0.018C0.212,0.018 0.188,0.016 0.165,0.011C0.141,0.006 0.118,-0.001 0.097,-0.01C0.076,-0.019 0.056,-0.031 0.038,-0.046C0.019,-0.06 0.004,-0.077 -0.009,-0.097L0.091,-0.166C0.104,-0.143 0.125,-0.124 0.152,-0.109C0.179,-0.094 0.208,-0.086 0.241,-0.086C0.258,-0.086 0.274,-0.088 0.291,-0.092C0.307,-0.096 0.322,-0.102 0.335,-0.112C0.347,-0.121 0.358,-0.132 0.367,-0.147C0.375,-0.161 0.379,-0.179 0.379,-0.2C0.379,-0.216 0.376,-0.23 0.369,-0.243C0.362,-0.255 0.352,-0.266 0.341,-0.275C0.329,-0.284 0.315,-0.293 0.3,-0.3C0.285,-0.307 0.268,-0.314 0.251,-0.32C0.23,-0.328 0.21,-0.337 0.191,-0.347C0.171,-0.357 0.155,-0.369 0.14,-0.384C0.125,-0.398 0.114,-0.415 0.106,-0.435C0.097,-0.455 0.093,-0.479 0.093,-0.506C0.093,-0.541 0.1,-0.573 0.116,-0.6C0.131,-0.627 0.15,-0.65 0.175,-0.669C0.2,-0.688 0.228,-0.702 0.261,-0.712C0.293,-0.721 0.326,-0.726 0.361,-0.726C0.379,-0.726 0.397,-0.724 0.417,-0.72C0.436,-0.716 0.454,-0.71 0.472,-0.703C0.489,-0.695 0.506,-0.685 0.522,-0.674C0.537,-0.663 0.55,-0.649 0.561,-0.634L0.471,-0.562Z" style="fill:rgb(0,20,87);fill-rule:nonzero;"/>
            </g>
            <g transform="matrix(197.879,0,0,197.879,1546.73,891.587)">
                <path d="M0.019,-0.385L0.036,-0.48L0.119,-0.48L0.143,-0.62L0.259,-0.62L0.235,-0.48L0.343,-0.48L0.326,-0.385L0.22,-0.385L0.178,-0.159C0.176,-0.149 0.175,-0.14 0.175,-0.131C0.175,-0.114 0.18,-0.102 0.191,-0.095C0.201,-0.088 0.215,-0.085 0.232,-0.085C0.24,-0.085 0.248,-0.086 0.256,-0.087C0.263,-0.088 0.27,-0.09 0.277,-0.092L0.27,-0.003C0.26,0.001 0.248,0.004 0.235,0.007C0.221,0.009 0.208,0.01 0.197,0.01C0.146,0.01 0.11,-0 0.089,-0.021C0.068,-0.041 0.057,-0.068 0.057,-0.101C0.057,-0.11 0.058,-0.121 0.059,-0.132C0.059,-0.142 0.061,-0.153 0.063,-0.162L0.104,-0.385L0.019,-0.385Z" style="fill:rgb(0,20,87);fill-rule:nonzero;"/>
            </g>
            <g transform="matrix(197.879,0,0,197.879,1614.01,891.587)">
                <path d="M0.14,-0.203C0.139,-0.2 0.139,-0.196 0.139,-0.192C0.139,-0.176 0.142,-0.161 0.149,-0.148C0.155,-0.135 0.164,-0.123 0.175,-0.114C0.186,-0.104 0.2,-0.096 0.215,-0.091C0.23,-0.085 0.247,-0.082 0.265,-0.082C0.296,-0.082 0.322,-0.088 0.344,-0.099C0.365,-0.11 0.385,-0.126 0.402,-0.145L0.469,-0.082C0.41,-0.018 0.337,0.014 0.252,0.014C0.219,0.014 0.189,0.009 0.162,-0.001C0.135,-0.01 0.111,-0.024 0.091,-0.042C0.071,-0.06 0.055,-0.082 0.044,-0.109C0.033,-0.135 0.027,-0.165 0.027,-0.199C0.027,-0.24 0.034,-0.279 0.048,-0.315C0.062,-0.35 0.082,-0.381 0.107,-0.408C0.132,-0.435 0.161,-0.456 0.196,-0.471C0.23,-0.486 0.267,-0.493 0.308,-0.493C0.337,-0.493 0.363,-0.489 0.388,-0.481C0.412,-0.473 0.433,-0.461 0.451,-0.445C0.469,-0.429 0.483,-0.409 0.493,-0.385C0.503,-0.361 0.508,-0.333 0.508,-0.301C0.508,-0.29 0.507,-0.276 0.505,-0.257C0.503,-0.238 0.5,-0.22 0.496,-0.203L0.14,-0.203ZM0.4,-0.287C0.401,-0.292 0.401,-0.296 0.402,-0.3C0.402,-0.304 0.402,-0.308 0.402,-0.312C0.402,-0.338 0.393,-0.36 0.375,-0.378C0.356,-0.396 0.33,-0.405 0.297,-0.405C0.276,-0.405 0.258,-0.401 0.241,-0.394C0.224,-0.387 0.21,-0.377 0.198,-0.366C0.185,-0.354 0.175,-0.341 0.167,-0.327C0.159,-0.313 0.154,-0.3 0.151,-0.287L0.4,-0.287Z" style="fill:rgb(0,20,87);fill-rule:nonzero;"/>
            </g>
            <g transform="matrix(197.879,0,0,197.879,1724.42,891.587)">
                <path d="M0.357,-0.304C0.358,-0.312 0.359,-0.318 0.36,-0.323C0.36,-0.327 0.36,-0.331 0.36,-0.335C0.36,-0.358 0.353,-0.375 0.338,-0.385C0.323,-0.395 0.3,-0.4 0.271,-0.4C0.248,-0.4 0.224,-0.396 0.199,-0.387C0.173,-0.378 0.151,-0.366 0.132,-0.352L0.087,-0.431C0.114,-0.45 0.146,-0.466 0.181,-0.477C0.216,-0.488 0.251,-0.493 0.288,-0.493C0.311,-0.493 0.333,-0.491 0.356,-0.486C0.378,-0.481 0.398,-0.472 0.416,-0.461C0.433,-0.45 0.447,-0.435 0.458,-0.417C0.469,-0.398 0.474,-0.375 0.474,-0.348C0.474,-0.342 0.474,-0.335 0.473,-0.326C0.472,-0.317 0.471,-0.31 0.47,-0.303L0.435,-0.108C0.432,-0.089 0.429,-0.07 0.427,-0.05C0.424,-0.03 0.423,-0.013 0.423,-0L0.315,-0C0.315,-0.018 0.317,-0.037 0.321,-0.057L0.319,-0.057C0.282,-0.012 0.23,0.01 0.163,0.01C0.146,0.01 0.129,0.008 0.111,0.004C0.093,0 0.077,-0.007 0.062,-0.017C0.047,-0.026 0.035,-0.039 0.026,-0.056C0.017,-0.072 0.012,-0.092 0.012,-0.117C0.012,-0.156 0.023,-0.188 0.044,-0.213C0.065,-0.237 0.092,-0.256 0.125,-0.27C0.158,-0.283 0.196,-0.292 0.237,-0.297C0.278,-0.302 0.318,-0.304 0.357,-0.304ZM0.332,-0.22C0.309,-0.22 0.286,-0.219 0.262,-0.218C0.237,-0.216 0.215,-0.212 0.195,-0.206C0.174,-0.2 0.158,-0.192 0.145,-0.181C0.131,-0.169 0.125,-0.155 0.125,-0.136C0.125,-0.125 0.127,-0.115 0.132,-0.108C0.136,-0.1 0.142,-0.094 0.149,-0.089C0.156,-0.084 0.165,-0.081 0.174,-0.079C0.183,-0.077 0.193,-0.076 0.203,-0.076C0.221,-0.076 0.238,-0.079 0.254,-0.085C0.269,-0.091 0.283,-0.099 0.295,-0.11C0.306,-0.12 0.316,-0.132 0.324,-0.146C0.331,-0.159 0.337,-0.174 0.34,-0.19L0.346,-0.22L0.332,-0.22Z" style="fill:rgb(0,20,87);fill-rule:nonzero;"/>
            </g>
            <g transform="matrix(197.879,0,0,197.879,1831.08,891.587)">
                <path d="M0.021,-0L0.154,-0.756L0.272,-0.756L0.138,-0L0.021,-0Z" style="fill:rgb(0,20,87);fill-rule:nonzero;"/>
            </g>
            <g transform="matrix(197.879,0,0,197.879,1883.91,891.587)">
                <path d="M0.019,-0.385L0.036,-0.48L0.119,-0.48L0.143,-0.62L0.259,-0.62L0.235,-0.48L0.343,-0.48L0.326,-0.385L0.22,-0.385L0.178,-0.159C0.176,-0.149 0.175,-0.14 0.175,-0.131C0.175,-0.114 0.18,-0.102 0.191,-0.095C0.201,-0.088 0.215,-0.085 0.232,-0.085C0.24,-0.085 0.248,-0.086 0.256,-0.087C0.263,-0.088 0.27,-0.09 0.277,-0.092L0.27,-0.003C0.26,0.001 0.248,0.004 0.235,0.007C0.221,0.009 0.208,0.01 0.197,0.01C0.146,0.01 0.11,-0 0.089,-0.021C0.068,-0.041 0.057,-0.068 0.057,-0.101C0.057,-0.11 0.058,-0.121 0.059,-0.132C0.059,-0.142 0.061,-0.153 0.063,-0.162L0.104,-0.385L0.019,-0.385Z" style="fill:rgb(0,20,87);fill-rule:nonzero;"/>
            </g>
            <g transform="matrix(197.879,0,0,197.879,1951.19,891.587)">
                <path d="M0.344,-0L0.39,-0.264C0.391,-0.272 0.393,-0.28 0.394,-0.288C0.395,-0.296 0.395,-0.304 0.395,-0.312C0.395,-0.333 0.389,-0.352 0.378,-0.369C0.367,-0.385 0.346,-0.393 0.316,-0.393C0.297,-0.393 0.28,-0.389 0.265,-0.382C0.249,-0.375 0.237,-0.365 0.226,-0.353C0.215,-0.34 0.206,-0.326 0.199,-0.31C0.192,-0.294 0.187,-0.278 0.184,-0.261L0.138,-0L0.021,-0L0.154,-0.756L0.272,-0.756L0.211,-0.412L0.213,-0.412C0.226,-0.433 0.245,-0.452 0.27,-0.469C0.295,-0.485 0.325,-0.493 0.361,-0.493C0.388,-0.493 0.411,-0.489 0.431,-0.481C0.45,-0.473 0.467,-0.462 0.48,-0.449C0.493,-0.436 0.502,-0.42 0.509,-0.402C0.515,-0.383 0.518,-0.364 0.518,-0.344C0.518,-0.327 0.517,-0.312 0.514,-0.299L0.461,-0L0.344,-0Z" style="fill:rgb(0,20,87);fill-rule:nonzero;"/>
            </g>
            <g transform="matrix(197.879,0,0,197.879,2116.22,891.587)">
                <path d="M0.655,-0.081C0.641,-0.069 0.625,-0.057 0.607,-0.045C0.588,-0.032 0.567,-0.021 0.544,-0.012C0.521,-0.003 0.495,0.005 0.466,0.011C0.436,0.017 0.404,0.02 0.369,0.02C0.316,0.02 0.268,0.013 0.227,-0.002C0.185,-0.017 0.15,-0.038 0.121,-0.065C0.091,-0.092 0.069,-0.125 0.054,-0.164C0.039,-0.203 0.031,-0.246 0.031,-0.293C0.031,-0.354 0.042,-0.41 0.063,-0.463C0.084,-0.516 0.113,-0.562 0.151,-0.601C0.189,-0.64 0.234,-0.671 0.286,-0.694C0.338,-0.717 0.395,-0.728 0.457,-0.728C0.518,-0.728 0.572,-0.719 0.619,-0.7C0.666,-0.681 0.701,-0.657 0.726,-0.629L0.565,-0.463C0.553,-0.48 0.537,-0.493 0.518,-0.502C0.498,-0.51 0.476,-0.514 0.451,-0.514C0.426,-0.514 0.403,-0.509 0.382,-0.499C0.361,-0.488 0.344,-0.474 0.329,-0.457C0.314,-0.439 0.303,-0.418 0.295,-0.395C0.287,-0.372 0.283,-0.347 0.283,-0.32C0.283,-0.285 0.294,-0.256 0.316,-0.232C0.337,-0.208 0.37,-0.196 0.413,-0.196C0.438,-0.196 0.462,-0.201 0.484,-0.212C0.506,-0.223 0.525,-0.236 0.541,-0.251L0.655,-0.081Z" style="fill:rgb(0,20,87);fill-rule:nonzero;"/>
            </g>
            <g transform="matrix(197.879,0,0,197.879,2251.97,891.587)">
                <path d="M-0.006,-0L0.127,-0.756L0.356,-0.756L0.223,-0L-0.006,-0Z" style="fill:rgb(0,20,87);fill-rule:nonzero;"/>
            </g>
            <g transform="matrix(197.879,0,0,197.879,2318.85,891.587)">
                <path d="M0.295,0.016C0.255,0.016 0.218,0.011 0.183,0.001C0.148,-0.009 0.118,-0.024 0.092,-0.044C0.066,-0.064 0.046,-0.089 0.031,-0.118C0.016,-0.147 0.009,-0.181 0.009,-0.219C0.009,-0.263 0.016,-0.305 0.031,-0.344C0.046,-0.383 0.067,-0.418 0.095,-0.447C0.122,-0.476 0.156,-0.5 0.197,-0.517C0.237,-0.534 0.283,-0.542 0.335,-0.542C0.376,-0.542 0.414,-0.537 0.449,-0.527C0.484,-0.517 0.515,-0.502 0.541,-0.482C0.567,-0.462 0.588,-0.437 0.603,-0.408C0.618,-0.379 0.625,-0.345 0.625,-0.307C0.625,-0.263 0.618,-0.221 0.603,-0.182C0.588,-0.143 0.567,-0.108 0.539,-0.079C0.511,-0.05 0.476,-0.027 0.436,-0.01C0.395,0.008 0.348,0.016 0.295,0.016ZM0.407,-0.283C0.407,-0.304 0.4,-0.322 0.387,-0.337C0.374,-0.352 0.354,-0.359 0.328,-0.359C0.313,-0.359 0.299,-0.356 0.287,-0.35C0.274,-0.343 0.264,-0.335 0.255,-0.325C0.245,-0.314 0.239,-0.302 0.234,-0.288C0.229,-0.274 0.227,-0.259 0.227,-0.244C0.227,-0.222 0.234,-0.204 0.247,-0.19C0.26,-0.175 0.28,-0.168 0.305,-0.168C0.321,-0.168 0.335,-0.171 0.348,-0.177C0.361,-0.183 0.371,-0.191 0.38,-0.202C0.389,-0.213 0.395,-0.225 0.4,-0.239C0.405,-0.252 0.407,-0.267 0.407,-0.283Z" style="fill:rgb(0,20,87);fill-rule:nonzero;"/>
            </g>
            <g transform="matrix(197.879,0,0,197.879,2449.45,891.587)">
                <path d="M0.562,-0.103C0.559,-0.09 0.557,-0.074 0.554,-0.054C0.551,-0.034 0.548,-0.016 0.547,-0L0.331,-0C0.332,-0.01 0.333,-0.022 0.334,-0.035C0.335,-0.048 0.337,-0.059 0.338,-0.068L0.334,-0.068C0.319,-0.047 0.297,-0.028 0.27,-0.012C0.242,0.004 0.211,0.012 0.178,0.012C0.149,0.012 0.124,0.008 0.104,-0.001C0.083,-0.01 0.066,-0.021 0.054,-0.036C0.041,-0.05 0.031,-0.066 0.026,-0.085C0.02,-0.104 0.017,-0.123 0.017,-0.143C0.017,-0.154 0.018,-0.165 0.019,-0.177C0.02,-0.188 0.021,-0.199 0.023,-0.21L0.078,-0.526L0.303,-0.526L0.254,-0.247C0.253,-0.241 0.252,-0.235 0.252,-0.229C0.251,-0.222 0.251,-0.217 0.251,-0.213C0.251,-0.2 0.255,-0.189 0.262,-0.181C0.269,-0.172 0.281,-0.168 0.297,-0.168C0.312,-0.168 0.326,-0.175 0.338,-0.189C0.349,-0.202 0.357,-0.222 0.362,-0.248L0.412,-0.526L0.636,-0.526L0.562,-0.103Z" style="fill:rgb(0,20,87);fill-rule:nonzero;"/>
            </g>
            <g transform="matrix(197.879,0,0,197.879,2579.65,891.587)">
                <path d="M0.221,0.013C0.186,0.013 0.156,0.007 0.13,-0.005C0.103,-0.016 0.081,-0.032 0.063,-0.053C0.045,-0.073 0.032,-0.097 0.023,-0.124C0.014,-0.151 0.009,-0.181 0.009,-0.212C0.009,-0.257 0.016,-0.299 0.031,-0.339C0.046,-0.378 0.066,-0.413 0.092,-0.442C0.118,-0.471 0.149,-0.495 0.185,-0.512C0.221,-0.529 0.26,-0.538 0.302,-0.538C0.315,-0.538 0.328,-0.537 0.341,-0.534C0.354,-0.531 0.367,-0.528 0.379,-0.523C0.391,-0.518 0.402,-0.511 0.412,-0.504C0.422,-0.497 0.43,-0.489 0.436,-0.48L0.438,-0.48L0.486,-0.756L0.709,-0.756L0.576,-0L0.375,-0L0.385,-0.056L0.383,-0.056C0.368,-0.036 0.346,-0.02 0.319,-0.007C0.291,0.007 0.258,0.013 0.221,0.013ZM0.227,-0.244C0.227,-0.223 0.234,-0.205 0.248,-0.19C0.261,-0.175 0.281,-0.168 0.307,-0.168C0.322,-0.168 0.336,-0.171 0.349,-0.177C0.361,-0.183 0.372,-0.191 0.381,-0.202C0.39,-0.213 0.397,-0.225 0.402,-0.239C0.407,-0.253 0.409,-0.268 0.409,-0.283C0.409,-0.305 0.402,-0.323 0.389,-0.338C0.375,-0.352 0.355,-0.359 0.33,-0.359C0.314,-0.359 0.3,-0.356 0.287,-0.35C0.274,-0.344 0.264,-0.336 0.255,-0.325C0.245,-0.314 0.239,-0.302 0.234,-0.289C0.229,-0.275 0.227,-0.26 0.227,-0.244Z" style="fill:rgb(0,20,87);fill-rule:nonzero;"/>
            </g>
        </g>
        <g transform="matrix(0.600895,0,0,0.600895,963.042,507.197)">
            <path d="M2442.7,1277.77C2434.52,1277.77 2427.87,1271.12 2427.87,1262.93C2427.87,1254.74 2434.52,1248.09 2442.7,1248.09C2442.7,1239.9 2449.35,1233.25 2457.54,1233.25C2462.96,1233.25 2467.7,1236.16 2470.3,1240.5C2470.98,1240.42 2471.68,1240.39 2472.38,1240.39C2481.47,1240.39 2489.05,1246.89 2490.73,1255.49C2495.47,1256.85 2498.95,1261.23 2498.95,1266.41C2498.95,1272.68 2493.86,1277.77 2487.59,1277.77L2442.7,1277.77ZM2457.04,1256.17L2457.04,1253.61C2457.05,1250.49 2459.59,1247.96 2462.71,1247.96C2465.83,1247.96 2468.37,1250.5 2468.37,1253.62L2468.37,1256.17C2469.32,1256.37 2470.02,1257.21 2470.02,1258.22L2470.02,1266.13C2470.02,1267.29 2469.08,1268.23 2467.92,1268.23L2457.49,1268.23C2456.33,1268.23 2455.39,1267.29 2455.39,1266.13L2455.39,1258.22C2455.39,1257.21 2456.1,1256.37 2457.04,1256.17ZM2466.27,1256.12L2459.14,1256.12L2459.14,1253.62L2459.15,1253.62C2459.15,1251.66 2460.74,1250.07 2462.71,1250.07C2464.67,1250.07 2466.26,1251.66 2466.26,1253.62L2466.27,1253.62L2466.27,1256.12Z" style="fill:rgb(0,20,87);"/>
        </g>
    </g>
</svg>
