<?xml version="1.0" encoding="UTF-8" standalone="no"?>
<!DOCTYPE svg PUBLIC "-//W3C//DTD SVG 1.1//EN" "http://www.w3.org/Graphics/SVG/1.1/DTD/svg11.dtd">
<svg width="100%" height="100%" viewBox="0 0 946 126" version="1.1" xmlns="http://www.w3.org/2000/svg" xmlns:xlink="http://www.w3.org/1999/xlink" xml:space="preserve" xmlns:serif="http://www.serif.com/" style="fill-rule:evenodd;clip-rule:evenodd;stroke-linejoin:round;stroke-miterlimit:2;">
    <g transform="matrix(1,0,0,1,-2483.88,1428.09)">
        <g transform="matrix(4.91995,0,0,4.91995,-4181.18,-7723.7)">
            <g>
                <g transform="matrix(0.165783,0,0,0.165783,1117.21,1156.6)">
                    <g transform="matrix(197.879,0,0,197.879,1434.33,891.587)">
                        <path d="M0.471,-0.562C0.458,-0.583 0.44,-0.599 0.419,-0.609C0.397,-0.619 0.373,-0.624 0.348,-0.624C0.335,-0.624 0.321,-0.622 0.306,-0.618C0.291,-0.614 0.277,-0.608 0.264,-0.6C0.251,-0.591 0.24,-0.58 0.231,-0.566C0.222,-0.552 0.218,-0.535 0.218,-0.515C0.218,-0.49 0.227,-0.47 0.245,-0.456C0.262,-0.442 0.286,-0.429 0.316,-0.418C0.378,-0.395 0.426,-0.368 0.459,-0.337C0.492,-0.305 0.509,-0.262 0.509,-0.208C0.509,-0.167 0.501,-0.133 0.485,-0.104C0.469,-0.075 0.448,-0.052 0.422,-0.034C0.396,-0.016 0.367,-0.003 0.334,0.006C0.301,0.014 0.268,0.018 0.235,0.018C0.212,0.018 0.188,0.016 0.165,0.011C0.141,0.006 0.118,-0.001 0.097,-0.01C0.076,-0.019 0.056,-0.031 0.038,-0.046C0.019,-0.06 0.004,-0.077 -0.009,-0.097L0.091,-0.166C0.104,-0.143 0.125,-0.124 0.152,-0.109C0.179,-0.094 0.208,-0.086 0.241,-0.086C0.258,-0.086 0.274,-0.088 0.291,-0.092C0.307,-0.096 0.322,-0.102 0.335,-0.112C0.347,-0.121 0.358,-0.132 0.367,-0.147C0.375,-0.161 0.379,-0.179 0.379,-0.2C0.379,-0.216 0.376,-0.23 0.369,-0.243C0.362,-0.255 0.352,-0.266 0.341,-0.275C0.329,-0.284 0.315,-0.293 0.3,-0.3C0.285,-0.307 0.268,-0.314 0.251,-0.32C0.23,-0.328 0.21,-0.337 0.191,-0.347C0.171,-0.357 0.155,-0.369 0.14,-0.384C0.125,-0.398 0.114,-0.415 0.106,-0.435C0.097,-0.455 0.093,-0.479 0.093,-0.506C0.093,-0.541 0.1,-0.573 0.116,-0.6C0.131,-0.627 0.15,-0.65 0.175,-0.669C0.2,-0.688 0.228,-0.702 0.261,-0.712C0.293,-0.721 0.326,-0.726 0.361,-0.726C0.379,-0.726 0.397,-0.724 0.417,-0.72C0.436,-0.716 0.454,-0.71 0.472,-0.703C0.489,-0.695 0.506,-0.685 0.522,-0.674C0.537,-0.663 0.55,-0.649 0.561,-0.634L0.471,-0.562Z" style="fill:#281638;fill-rule:nonzero;"/>
                    </g>
                    <g transform="matrix(197.879,0,0,197.879,1546.73,891.587)">
                        <path d="M0.019,-0.385L0.036,-0.48L0.119,-0.48L0.143,-0.62L0.259,-0.62L0.235,-0.48L0.343,-0.48L0.326,-0.385L0.22,-0.385L0.178,-0.159C0.176,-0.149 0.175,-0.14 0.175,-0.131C0.175,-0.114 0.18,-0.102 0.191,-0.095C0.201,-0.088 0.215,-0.085 0.232,-0.085C0.24,-0.085 0.248,-0.086 0.256,-0.087C0.263,-0.088 0.27,-0.09 0.277,-0.092L0.27,-0.003C0.26,0.001 0.248,0.004 0.235,0.007C0.221,0.009 0.208,0.01 0.197,0.01C0.146,0.01 0.11,-0 0.089,-0.021C0.068,-0.041 0.057,-0.068 0.057,-0.101C0.057,-0.11 0.058,-0.121 0.059,-0.132C0.059,-0.142 0.061,-0.153 0.063,-0.162L0.104,-0.385L0.019,-0.385Z" style="fill:#281638;fill-rule:nonzero;"/>
                    </g>
                    <g transform="matrix(197.879,0,0,197.879,1614.01,891.587)">
                        <path d="M0.14,-0.203C0.139,-0.2 0.139,-0.196 0.139,-0.192C0.139,-0.176 0.142,-0.161 0.149,-0.148C0.155,-0.135 0.164,-0.123 0.175,-0.114C0.186,-0.104 0.2,-0.096 0.215,-0.091C0.23,-0.085 0.247,-0.082 0.265,-0.082C0.296,-0.082 0.322,-0.088 0.344,-0.099C0.365,-0.11 0.385,-0.126 0.402,-0.145L0.469,-0.082C0.41,-0.018 0.337,0.014 0.252,0.014C0.219,0.014 0.189,0.009 0.162,-0.001C0.135,-0.01 0.111,-0.024 0.091,-0.042C0.071,-0.06 0.055,-0.082 0.044,-0.109C0.033,-0.135 0.027,-0.165 0.027,-0.199C0.027,-0.24 0.034,-0.279 0.048,-0.315C0.062,-0.35 0.082,-0.381 0.107,-0.408C0.132,-0.435 0.161,-0.456 0.196,-0.471C0.23,-0.486 0.267,-0.493 0.308,-0.493C0.337,-0.493 0.363,-0.489 0.388,-0.481C0.412,-0.473 0.433,-0.461 0.451,-0.445C0.469,-0.429 0.483,-0.409 0.493,-0.385C0.503,-0.361 0.508,-0.333 0.508,-0.301C0.508,-0.29 0.507,-0.276 0.505,-0.257C0.503,-0.238 0.5,-0.22 0.496,-0.203L0.14,-0.203ZM0.4,-0.287C0.401,-0.292 0.401,-0.296 0.402,-0.3C0.402,-0.304 0.402,-0.308 0.402,-0.312C0.402,-0.338 0.393,-0.36 0.375,-0.378C0.356,-0.396 0.33,-0.405 0.297,-0.405C0.276,-0.405 0.258,-0.401 0.241,-0.394C0.224,-0.387 0.21,-0.377 0.198,-0.366C0.185,-0.354 0.175,-0.341 0.167,-0.327C0.159,-0.313 0.154,-0.3 0.151,-0.287L0.4,-0.287Z" style="fill:#281638;fill-rule:nonzero;"/>
                    </g>
                    <g transform="matrix(197.879,0,0,197.879,1724.42,891.587)">
                        <path d="M0.357,-0.304C0.358,-0.312 0.359,-0.318 0.36,-0.323C0.36,-0.327 0.36,-0.331 0.36,-0.335C0.36,-0.358 0.353,-0.375 0.338,-0.385C0.323,-0.395 0.3,-0.4 0.271,-0.4C0.248,-0.4 0.224,-0.396 0.199,-0.387C0.173,-0.378 0.151,-0.366 0.132,-0.352L0.087,-0.431C0.114,-0.45 0.146,-0.466 0.181,-0.477C0.216,-0.488 0.251,-0.493 0.288,-0.493C0.311,-0.493 0.333,-0.491 0.356,-0.486C0.378,-0.481 0.398,-0.472 0.416,-0.461C0.433,-0.45 0.447,-0.435 0.458,-0.417C0.469,-0.398 0.474,-0.375 0.474,-0.348C0.474,-0.342 0.474,-0.335 0.473,-0.326C0.472,-0.317 0.471,-0.31 0.47,-0.303L0.435,-0.108C0.432,-0.089 0.429,-0.07 0.427,-0.05C0.424,-0.03 0.423,-0.013 0.423,-0L0.315,-0C0.315,-0.018 0.317,-0.037 0.321,-0.057L0.319,-0.057C0.282,-0.012 0.23,0.01 0.163,0.01C0.146,0.01 0.129,0.008 0.111,0.004C0.093,0 0.077,-0.007 0.062,-0.017C0.047,-0.026 0.035,-0.039 0.026,-0.056C0.017,-0.072 0.012,-0.092 0.012,-0.117C0.012,-0.156 0.023,-0.188 0.044,-0.213C0.065,-0.237 0.092,-0.256 0.125,-0.27C0.158,-0.283 0.196,-0.292 0.237,-0.297C0.278,-0.302 0.318,-0.304 0.357,-0.304ZM0.332,-0.22C0.309,-0.22 0.286,-0.219 0.262,-0.218C0.237,-0.216 0.215,-0.212 0.195,-0.206C0.174,-0.2 0.158,-0.192 0.145,-0.181C0.131,-0.169 0.125,-0.155 0.125,-0.136C0.125,-0.125 0.127,-0.115 0.132,-0.108C0.136,-0.1 0.142,-0.094 0.149,-0.089C0.156,-0.084 0.165,-0.081 0.174,-0.079C0.183,-0.077 0.193,-0.076 0.203,-0.076C0.221,-0.076 0.238,-0.079 0.254,-0.085C0.269,-0.091 0.283,-0.099 0.295,-0.11C0.306,-0.12 0.316,-0.132 0.324,-0.146C0.331,-0.159 0.337,-0.174 0.34,-0.19L0.346,-0.22L0.332,-0.22Z" style="fill:#281638;fill-rule:nonzero;"/>
                    </g>
                    <g transform="matrix(197.879,0,0,197.879,1831.08,891.587)">
                        <path d="M0.021,-0L0.154,-0.756L0.272,-0.756L0.138,-0L0.021,-0Z" style="fill:#281638;fill-rule:nonzero;"/>
                    </g>
                    <g transform="matrix(197.879,0,0,197.879,1883.91,891.587)">
                        <path d="M0.019,-0.385L0.036,-0.48L0.119,-0.48L0.143,-0.62L0.259,-0.62L0.235,-0.48L0.343,-0.48L0.326,-0.385L0.22,-0.385L0.178,-0.159C0.176,-0.149 0.175,-0.14 0.175,-0.131C0.175,-0.114 0.18,-0.102 0.191,-0.095C0.201,-0.088 0.215,-0.085 0.232,-0.085C0.24,-0.085 0.248,-0.086 0.256,-0.087C0.263,-0.088 0.27,-0.09 0.277,-0.092L0.27,-0.003C0.26,0.001 0.248,0.004 0.235,0.007C0.221,0.009 0.208,0.01 0.197,0.01C0.146,0.01 0.11,-0 0.089,-0.021C0.068,-0.041 0.057,-0.068 0.057,-0.101C0.057,-0.11 0.058,-0.121 0.059,-0.132C0.059,-0.142 0.061,-0.153 0.063,-0.162L0.104,-0.385L0.019,-0.385Z" style="fill:#281638;fill-rule:nonzero;"/>
                    </g>
                    <g transform="matrix(197.879,0,0,197.879,1951.19,891.587)">
                        <path d="M0.344,-0L0.39,-0.264C0.391,-0.272 0.393,-0.28 0.394,-0.288C0.395,-0.296 0.395,-0.304 0.395,-0.312C0.395,-0.333 0.389,-0.352 0.378,-0.369C0.367,-0.385 0.346,-0.393 0.316,-0.393C0.297,-0.393 0.28,-0.389 0.265,-0.382C0.249,-0.375 0.237,-0.365 0.226,-0.353C0.215,-0.34 0.206,-0.326 0.199,-0.31C0.192,-0.294 0.187,-0.278 0.184,-0.261L0.138,-0L0.021,-0L0.154,-0.756L0.272,-0.756L0.211,-0.412L0.213,-0.412C0.226,-0.433 0.245,-0.452 0.27,-0.469C0.295,-0.485 0.325,-0.493 0.361,-0.493C0.388,-0.493 0.411,-0.489 0.431,-0.481C0.45,-0.473 0.467,-0.462 0.48,-0.449C0.493,-0.436 0.502,-0.42 0.509,-0.402C0.515,-0.383 0.518,-0.364 0.518,-0.344C0.518,-0.327 0.517,-0.312 0.514,-0.299L0.461,-0L0.344,-0Z" style="fill:#281638;fill-rule:nonzero;"/>
                    </g>
                    <g transform="matrix(197.879,0,0,197.879,2066.75,891.587)">
                        <path d="M0.489,-0.255C0.484,-0.224 0.476,-0.192 0.466,-0.16C0.455,-0.127 0.44,-0.098 0.42,-0.071C0.399,-0.044 0.372,-0.023 0.338,-0.006C0.303,0.012 0.259,0.02 0.206,0.02C0.14,0.02 0.085,0.004 0.042,-0.027C-0.001,-0.058 -0.031,-0.102 -0.048,-0.159L0.164,-0.234C0.166,-0.223 0.171,-0.213 0.178,-0.204C0.185,-0.195 0.196,-0.191 0.209,-0.191C0.224,-0.191 0.235,-0.197 0.242,-0.208C0.249,-0.219 0.254,-0.234 0.257,-0.251L0.338,-0.708L0.57,-0.708L0.489,-0.255Z" style="fill:#281638;fill-rule:nonzero;"/>
                    </g>
                    <g transform="matrix(197.879,0,0,197.879,2177.96,891.587)">
                        <path d="M0.215,-0.211C0.214,-0.209 0.214,-0.207 0.214,-0.204C0.214,-0.193 0.217,-0.184 0.223,-0.177C0.229,-0.169 0.236,-0.164 0.245,-0.16C0.254,-0.155 0.263,-0.152 0.273,-0.151C0.283,-0.149 0.292,-0.148 0.3,-0.148C0.317,-0.148 0.333,-0.151 0.349,-0.157C0.365,-0.162 0.379,-0.171 0.392,-0.183L0.543,-0.079C0.508,-0.044 0.469,-0.019 0.424,-0.005C0.379,0.009 0.333,0.016 0.285,0.016C0.248,0.016 0.212,0.011 0.179,0.001C0.145,-0.009 0.116,-0.024 0.091,-0.044C0.066,-0.064 0.046,-0.089 0.031,-0.119C0.016,-0.148 0.009,-0.183 0.009,-0.223C0.009,-0.268 0.017,-0.31 0.033,-0.349C0.049,-0.388 0.072,-0.421 0.101,-0.45C0.13,-0.479 0.164,-0.501 0.205,-0.518C0.245,-0.534 0.289,-0.542 0.338,-0.542C0.377,-0.542 0.411,-0.537 0.442,-0.526C0.473,-0.515 0.499,-0.499 0.52,-0.479C0.541,-0.458 0.558,-0.434 0.57,-0.405C0.581,-0.376 0.587,-0.343 0.587,-0.307C0.587,-0.292 0.586,-0.276 0.584,-0.259C0.581,-0.242 0.578,-0.226 0.573,-0.211L0.215,-0.211ZM0.392,-0.33C0.393,-0.332 0.393,-0.334 0.393,-0.337L0.393,-0.342C0.393,-0.359 0.387,-0.372 0.375,-0.382C0.362,-0.392 0.345,-0.397 0.323,-0.397C0.309,-0.397 0.297,-0.395 0.286,-0.39C0.275,-0.385 0.265,-0.38 0.257,-0.373C0.249,-0.366 0.243,-0.359 0.238,-0.352C0.233,-0.344 0.229,-0.337 0.227,-0.33L0.392,-0.33Z" style="fill:#281638;fill-rule:nonzero;"/>
                    </g>
                    <g transform="matrix(197.879,0,0,197.879,2301.04,891.587)">
                        <path d="M0.291,-0.365L0.264,-0.217C0.263,-0.213 0.263,-0.208 0.263,-0.203C0.262,-0.198 0.262,-0.193 0.262,-0.19C0.262,-0.175 0.266,-0.165 0.274,-0.16C0.281,-0.155 0.292,-0.152 0.306,-0.152C0.314,-0.152 0.322,-0.153 0.33,-0.154C0.338,-0.155 0.345,-0.157 0.35,-0.158L0.323,-0.004C0.314,0.001 0.299,0.006 0.277,0.009C0.255,0.012 0.234,0.014 0.213,0.014C0.191,0.014 0.169,0.012 0.148,0.008C0.127,0.004 0.108,-0.003 0.091,-0.013C0.074,-0.023 0.061,-0.037 0.051,-0.054C0.04,-0.071 0.035,-0.094 0.035,-0.121C0.035,-0.128 0.036,-0.137 0.037,-0.146C0.038,-0.155 0.039,-0.164 0.04,-0.172L0.075,-0.365L-0.003,-0.365L0.025,-0.526L0.099,-0.526L0.12,-0.645L0.337,-0.645L0.316,-0.526L0.417,-0.526L0.389,-0.365L0.291,-0.365Z" style="fill:#281638;fill-rule:nonzero;"/>
                    </g>
                </g>
                <g>
                    <path d="M1534.08,1279.61C1541.1,1279.61 1546.81,1285.31 1546.81,1292.34C1546.81,1299.36 1541.1,1305.07 1534.08,1305.07C1527.05,1305.07 1521.35,1299.36 1521.35,1292.34C1521.35,1285.31 1527.05,1279.61 1534.08,1279.61ZM1525.29,1290.41L1527.02,1289.99L1530.81,1292.98L1534.08,1291.82L1537.35,1292.98L1541.14,1289.99L1542.87,1290.41L1534.08,1297.39L1525.29,1290.41ZM1533.29,1295.1C1533.29,1294.8 1533.68,1295.1 1534.08,1295.1C1534.48,1295.1 1534.87,1294.8 1534.87,1295.1C1534.87,1295.69 1534.52,1296.16 1534.08,1296.16C1533.64,1296.16 1533.29,1295.69 1533.29,1295.1Z" style="fill:#281638;"/>
                </g>
            </g>
        </g>
    </g>
</svg>
